PathFileType	4	(X/Y/Z)	C:/Users/beibeiliu/ov580/test_trc/User3\sequence.2_training_dense_left.trc
DataRate	CameraRate	NumFrames	NumMarkers	Units	OrigDataRate	OrigDataStartFrame	OrigNumFrames
120	120	23	19	mm	120	1	68
Frame#	Time	ThumbCMC			ThumbMCP			ThumbIP			ThumbTip			IndexMCP			IndexPIP			IndexTip			MiddleMCP			MiddlePIP			MiddleTip			RingMCP			RingPIP			RingTip			PinkyMCP			PinkyPIP			PinkyTip			BackHand1			BackHand2			BackHand3	
		X0	Y0	Z0	X1	Y1	Z1	X2	Y2	Z2	X3	Y3	Z3	X4	Y4	Z4	X5	Y5	Z5	X6	Y6	Z6	X7	Y7	Z7	X8	Y8	Z8	X9	Y9	Z9	X10	Y10	Z10	X11	Y11	Z11	X12	Y12	Z12	X13	Y13	Z13	X14	Y14	Z14	X15	Y15	Z15	X16	Y16	Z16	X17	Y17	Z17	X18	Y18	Z18	
0	0	-98.1921	16.396	-2.09771	-78.9714	8.01311	-22.3963	-57.402	3.05224	-43.6732	-44.4205	-4.23171	-64.7368	-116.29	34.5846	-77.6292	-106.612	35.6086	-103.512	-99.549	31.5196	-133.941	-140.599	35.9775	-84.5763	-140.491	36.0009	-114.544	-139.786	25.1014	-146.081	-159.373	26.5281	-80.1822	-163.163	25.2832	-103.076	-166.46	14.7709	-129.546	-181.031	14.0168	-64.6504	-185.458	10.7283	-83.8875	-185.963	3.81036	-108.963	-160.672	34.3888	-29.2042	-162.596	33.2501	5.58747	-129.611	38.4171	-13.5803	
1	0.00833333	-100.592	12.7461	-5.88925	-78.94	5.50562	-24.9828	-63.6975	-1.56344	-46.8811	-47.7066	-9.75914	-67.0167	-118.34	32.7693	-80.5673	-109.964	33.4344	-109.44	-104.087	27.6687	-136.454	-141.842	34.3252	-88.2403	-141.693	33.8315	-113.308	-142.527	21.7495	-147.091	-165.381	24.181	-79.1034	-163.824	22.2547	-104.63	-167.537	9.96324	-135.358	-179.876	11.4461	-61.938	-187.722	7.55624	-90.2204	-190.488	0.510093	-109.436	-164.008	30.3588	-26.2487	-162.83	31.8084	2.23393	-129.863	35.1128	-16.2364	
2	0.0166667	-102.19	10.712	-4.89805	-82.3466	3.51396	-23.929	-61.938	-3.66562	-51.2828	-54.2793	-12.0054	-66.6351	-114.964	33.6106	-84.1842	-112.721	33.0226	-108.001	-103.369	28.0178	-133.013	-146.094	34.6234	-85.0925	-144.113	33.4806	-114.986	-141.508	21.0478	-145.96	-161.711	25.248	-77.5618	-165.603	20.9516	-109.629	-168.767	7.05879	-134.366	-183.063	12.9326	-63.7499	-189.017	7.26822	-89.2281	-187.885	-4.14704	-109.7	-166.284	30.5092	-26.6174	-163.486	28.7155	1.90488	-132.854	33.534	-13.2946	
3	0.025	-100.75	13.918	-10.0198	-85.1198	5.51406	-29.2841	-68.5179	-1.648	-53.5433	-60.7543	-10.4991	-71.2792	-120.778	39.8936	-82.8338	-111.618	39.8051	-111.426	-112.275	29.9865	-132.772	-146.006	40.1436	-83.0409	-146.563	37.7574	-117.258	-145.062	19.0243	-144.748	-163.109	31.1092	-79.9094	-167.164	24.9293	-109.218	-165.222	8.75965	-129.548	-179.915	16.3654	-63.3809	-185.283	12.4838	-91.1594	-184.831	-4.91047	-111.111	-166.731	32.6423	-28.9725	-169.657	29.4143	1.4962	-133.884	37.0891	-15.0877	
4	0.0333333	-108.424	16.9899	-7.51021	-87.5631	10.9453	-33.3438	-71.7731	3.82561	-56.3105	-69.4999	-5.38908	-80.4185	-122.919	49.098	-77.8005	-118.505	49.0536	-107.461	-111.415	31.111	-130.74	-147.491	49.9689	-87.3708	-145.341	40.9757	-118.954	-141.118	16.071	-137.843	-169.97	34.7314	-79.377	-166.021	26.4469	-111.21	-160.967	-1.56967	-123.846	-186.951	19.2461	-67.6053	-183.176	13.5884	-91.88	-176.232	-10.8617	-106.802	-171.454	37.3456	-27.5876	-168.037	33.047	0.546183	-138.554	40.4833	-14.2183	
5	0.0416667	-110.77	20.4021	-12.3719	-92.0755	13.7523	-34.4613	-79.859	7.35591	-63.0698	-80.3736	-3.70538	-85.9246	-126.178	51.5403	-77.4643	-124.837	45.0569	-112.13	-114.514	22.6115	-125.471	-153.481	48.8934	-87.9702	-146.724	39.5957	-117.727	-141.06	4.27362	-126.038	-172.278	34.7299	-81.3399	-167.697	19.7391	-110.312	-158.216	-8.21809	-111.243	-185.925	19.8589	-69.8117	-181.942	9.80959	-92.836	-168.929	-17.8315	-95.4232	-171.397	37.6894	-25.2778	-173.656	31.2683	1.19953	-139.029	42.7229	-13.1189	
6	0.05	-111.097	19.9192	-13.2965	-92.3067	12.2792	-37.2072	-84.4877	3.3218	-61.0291	-89.5061	-6.31021	-85.3861	-133.374	46.8316	-85.6407	-124.524	39.2042	-111.671	-118.203	8.99998	-119.808	-155.59	42.9941	-92.177	-146.465	30.7051	-118.003	-137.105	-9.41829	-113.795	-168.776	30.4112	-82.3342	-165.774	11.7916	-108.927	-150.045	-18.47	-97.5376	-188.261	13.4644	-73.9917	-177.603	-4.4148	-95.0866	-163.341	-26.1046	-85.0922	-172.586	33.5721	-28.0881	-178	28.4522	0.288066	-145.577	41.5172	-13.7748	
7	0.0583333	-112.535	18.6528	-10.5343	-93.178	10.7172	-35.9252	-82.2774	3.24742	-67.0699	-90.4581	-9.67711	-88.9858	-133.351	43.8595	-87.7704	-123.437	28.4645	-116.099	-118.564	0.386093	-116.511	-154.117	37.9403	-95.4761	-146.467	20.6731	-119.291	-132.474	-16.6837	-103.511	-168.471	25.35	-87.167	-165.741	1.19843	-108.261	-152.092	-22.6595	-91.3162	-187.209	9.03048	-79.9128	-176.216	-9.28753	-94.4475	-158.986	-29.9088	-75.0403	-179.133	30.7024	-31.2665	-179.144	27.2043	-4.34978	-144.32	41.9637	-17.1042	
8	0.0666667	-113.442	19.0975	-15.7763	-94.8782	11.5841	-40.6807	-87.1037	3.10852	-66.8087	-97.0845	-9.62454	-90.9571	-134.349	42.6851	-88.3178	-125.408	24.9836	-118.615	-113.125	-4.86004	-112.064	-154.714	36.4802	-94.9307	-147.968	12.7024	-121.158	-134.854	-17.754	-103.215	-170.755	21.207	-91.6236	-164.462	-3.60345	-108.654	-146.98	-24.2111	-86.339	-188.076	5.46952	-78.0559	-174.94	-13.8843	-94.139	-158.337	-31.9905	-72.6437	-177.578	30.9767	-35.4528	-180.416	25.364	-3.91333	-146.687	39.1818	-19.1593	
9	0.075	-117.709	23.2201	-17.1309	-92.6533	17.381	-42.8257	-82.3441	8.91976	-67.7616	-94.7187	-6.93019	-88.0742	-137.291	40.6727	-93.6354	-130.791	24.9136	-119.738	-114.784	-5.00374	-114.084	-155.885	32.0558	-101.076	-144.027	10.4418	-123.409	-129.851	-18.8987	-103.125	-168.124	15.4346	-95.6976	-162.197	-11.2377	-109.209	-143.397	-27.5818	-84.463	-182.225	-0.863402	-79.339	-167.127	-25.0145	-91.0961	-150.617	-32.956	-68.8649	-183.133	26.8385	-38.6948	-183.085	24.7729	-11.1903	-150.172	40.9392	-22.1386	
10	0.0833333	-120.82	35.7892	-22.1139	-97.7958	32.0644	-44.2425	-83.6218	22.9607	-69.953	-86.9176	1.61192	-89.8566	-142.278	29.2034	-98.8169	-124.88	15.8631	-120.81	-102.144	-6.3533	-106.697	-154.514	14.7988	-106.122	-134.797	-2.90181	-121.533	-114.883	-23.4735	-95.5917	-163.637	-7.57822	-94.0852	-142.628	-27.0141	-103.973	-121.475	-30.456	-74.6728	-167.97	-20.706	-78.5036	-143.926	-38.2549	-84.1217	-129.729	-34.9089	-58.8057	-182.712	11.8545	-42.8157	-182.928	13.5091	-16.5096	-160.273	37.9416	-29.496	
11	0.0916667	-133.004	43.7797	-22.1648	-106.046	53.4494	-44.2428	-86.5172	46.8515	-67.1705	-79.5428	21.9742	-78.9983	-134.212	18.7356	-100.431	-107.4	10.0292	-116.286	-83.3608	6.26464	-99.6099	-137.727	-0.890081	-101.403	-106.892	-12.2351	-112.357	-84.4436	-10.796	-78.1112	-137.095	-21.2984	-86.5367	-106.987	-27.815	-92.3009	-92.5305	-21.6327	-62.1096	-133.193	-33.5075	-73.9138	-108.752	-36.8887	-71.2514	-100.527	-23.9875	-41.8552	-171.971	-7.1153	-46.2233	-178.601	-3.0706	-16.7958	-163.08	30.2545	-37.131	
12	0.1	-145.275	46.604	-30.5927	-123.978	62.0671	-47.0263	-99.2841	68.4257	-66.6171	-77.4009	50.6944	-74.5313	-118.979	17.5348	-99.2188	-90.6585	23.744	-110.892	-70.6435	34.66	-91.7111	-110.765	-0.127533	-97.0522	-77.292	4.89937	-100.016	-64.842	19.1066	-68.9347	-102.571	-18.26	-77.6854	-72.4905	-4.43275	-77.3591	-71.7918	10.745	-48.3995	-98.9886	-27.3562	-57.7381	-74.4508	-15.3475	-56.0078	-79.4944	6.53615	-30.6534	-146.328	-14.0391	-45.0525	-161.843	-12.0707	-14.8118	-161.266	17.0026	-38.3217	
13	0.108333	-155.079	43.8949	-31.7685	-142.612	67.4688	-55.9291	-119.945	78.7214	-74.3406	-90.9904	73.2047	-75.5278	-109.492	20.825	-94.0211	-86.7179	38.1325	-110.288	-77.0784	64.8762	-87.9377	-91.0351	10.4674	-94.2792	-67.5093	33.3184	-98.0139	-67.4393	55.8125	-69.1596	-79.259	4.95465	-74.6648	-59.2553	25.3991	-73.7953	-68.7691	45.6639	-48.4274	-72.9277	1.58178	-55.6768	-58.4151	25.268	-48.7367	-75.3106	39.3553	-30.2804	-120.528	-12.3862	-40.3561	-138.004	-16.4048	-14.6504	-152.779	5.75481	-38.4008	
14	0.116667	-160.164	33.2981	-34.2348	-160.109	56.4354	-56.7541	-146.546	75.6073	-79.0902	-118.041	81.248	-83.1941	-109.963	25.7356	-99.578	-98.5968	49.9318	-115.647	-102.112	77.3447	-96.3496	-92.8056	22.6298	-95.709	-79.9106	51.9103	-106.945	-88.429	75.8518	-73.3083	-76.7003	25.2547	-78.6255	-66.756	54.4491	-81.2096	-83.2164	68.7205	-58.7966	-63.5394	27.092	-58.4582	-60.7921	52.8914	-59.0062	-84.938	62.725	-35.5378	-101.606	-5.62857	-35.4808	-116.158	-8.17082	-12.0694	-137.794	0.426568	-37.7727	
15	0.125	-166.725	18.6152	-30.9929	-172.908	37.3695	-57.4089	-169.478	54.5686	-85.6557	-148.458	68.0783	-92.8144	-131.068	11.4447	-102.355	-130.309	36.6464	-123.752	-132.145	65.8199	-102.444	-107.121	13.0464	-100.001	-107.867	46.2315	-116.892	-116.781	67.9015	-87.7995	-91.4297	21.4232	-86.1158	-91.7614	50.8213	-95.6669	-106.216	64.8814	-68.8544	-76.973	29.2131	-69.4575	-83.8065	54.6584	-75.1531	-104.329	61.8765	-51.932	-103.977	-5.62784	-41.2211	-111.815	-9.97212	-11.2718	-140.043	-11.1967	-37.508	
16	0.133333	-185.222	0.701742	-23.3505	-196.202	15.434	-55.3868	-197.097	27.0795	-80.3051	-175.062	36.9447	-99.2244	-162.6	-17.5224	-97.34	-163.715	7.94883	-121.941	-166.715	35.2395	-107.134	-138.584	-13.4689	-100.188	-140.699	15.9683	-119.922	-146.7	40.0408	-90.9057	-125.408	-3.36464	-93.6189	-123.905	26.6728	-103.217	-135.929	41.1876	-72.8668	-107.119	5.69491	-80.9466	-112.871	29.2812	-88.0512	-126.622	41.0079	-64.3233	-124.064	-25.5633	-37.7267	-127.167	-26.0483	-12.472	-157.092	-29.5254	-31.0338	
17	0.141667	-209.529	-2.54088	-16.9152	-218.222	12.4583	-42.3938	-221.62	21.7829	-71.6658	-203.176	24.4149	-95.7092	-207.486	-31.0289	-88.2985	-203.394	-7.77062	-114.943	-197.812	19.2403	-101.435	-183.905	-31.9389	-100.222	-183.007	-4.55587	-115.828	-172.968	19.7524	-82.9078	-162.657	-27.5663	-93.469	-158.43	-0.562577	-105.591	-164.334	18.9617	-76.3941	-145.282	-24.128	-81.5104	-144.403	3.87195	-91.9765	-148.855	18.7755	-70.6093	-161.62	-46.0979	-37.8922	-155.177	-42.6111	-10.4795	-188.601	-39.1902	-21.2767	
18	0.15	-224.887	20.4509	-6.59115	-225.834	37.5093	-30.1204	-227.872	49.2281	-63.7991	-213.398	36.6013	-82.3487	-249.138	-3.15769	-73.9285	-240.363	14.8742	-102.381	-213.826	30.8211	-89.552	-236.571	-16.4421	-85.9472	-215.861	5.70771	-106.469	-194.517	16.9362	-80.9555	-215.424	-26.3704	-83.8893	-194.92	-5.53768	-99.5984	-182.908	10.6777	-69.6637	-195.981	-34.372	-77.5173	-183.808	-10.5072	-89.5233	-174.175	4.47296	-69.7965	-215.453	-41.7884	-28.2543	-203.878	-45.4262	-0.992206	-227.856	-20.4594	-9.80616	
19	0.158333	-219.803	44.5289	0.968588	-213.304	68.2263	-22.1697	-212.344	75.69	-52.1583	-211.88	60.6118	-77.3645	-267.8	48.6384	-64.7679	-253.66	58.7153	-89.8275	-220.544	51.898	-80.8236	-268.209	32.2127	-76.1811	-244.445	41.1846	-97.0219	-214.73	29.1086	-77.0938	-257.553	9.33363	-78.2927	-235.297	15.2516	-94.1562	-208.29	15.8959	-69.4816	-248.468	-11.2797	-70.1617	-226.818	-2.4447	-87.8719	-203.708	1.0918	-68.3219	-261.006	-5.68685	-19.9348	-243.068	-15.5999	7.11375	-249.866	23.001	3.10378	
20	0.166667	-222.856	50.2235	0.175289	-207.295	70.6785	-27.0769	-204.864	77.7462	-57.6418	-216.685	62.7999	-80.8527	-266.539	82.9231	-57.5878	-252.322	81.1418	-90.493	-229.777	57.1276	-82.391	-281.09	67.8048	-69.2199	-260.493	66.1272	-96.2922	-237.639	37.1119	-79.6833	-284.296	45.2242	-70.4951	-262.644	34.2641	-93.4067	-240.401	23.317	-73.808	-286.606	24.0044	-65.9235	-267.161	18.3711	-85.2525	-243.079	10.0971	-70.4952	-285.366	32.1847	-15.1634	-276.109	17.6244	7.73635	-263.09	49.9303	1.29469	
21	0.175	-238.852	42.3808	-8.40849	-219.708	42.2588	-31.109	-212.021	45.1568	-63.996	-227.322	36.7322	-83.6321	-263.895	82.7497	-70.6668	-253.259	72.4882	-99.4894	-246.13	40.9578	-93.4143	-282.379	78.6217	-79.8745	-274.647	57.4914	-104.298	-265.15	26.5522	-86.3082	-300.563	58.5011	-74.1133	-288.812	36.0523	-95.8737	-276.082	14.9623	-75.0954	-311.676	42.5919	-70.0224	-297.787	24.131	-85.3284	-284.588	6.78844	-69.7844	-304.192	56.5686	-18.9744	-303.049	39.1546	9.1957	-273.397	59.1057	-3.41718	
22	0.183333	-249.539	17.4528	-5.79308	-232.22	8.29473	-33.3297	-223.293	-1.01293	-61.6255	-240.422	-8.31424	-85.1199	-255.748	48.3275	-76.9471	-253.889	28.8257	-105.323	-257.987	-0.435433	-93.8736	-278.052	47.7787	-87.7437	-281.517	23.9952	-107.538	-283.185	-6.72229	-78.0096	-298.073	38.9573	-79.3085	-301.672	10.7396	-95.1266	-291.489	-7.73132	-68.9536	-320.713	30.2669	-72.9505	-313.765	3.97215	-81.4514	-305.842	-12.1259	-60.3712	-306.286	54.0575	-26.8849	-309.034	47.4606	5.70709	-272.547	49.3523	-9.60658	
